<svg width="71" height="71" viewBox="0 0 71 71" fill="none" xmlns="http://www.w3.org/2000/svg">
<path d="M66.8639 30.9127L47.2867 23.7965L40.1705 4.21932C39.8198 3.2744 39.1882 2.45945 38.3608 1.88396C37.5333 1.30847 36.5495 1 35.5416 1C34.5337 1 33.5499 1.30847 32.7224 1.88396C31.8949 2.45945 31.2634 3.2744 30.9127 4.21932L23.7965 23.7965L4.21932 30.9127C3.2744 31.2634 2.45945 31.8949 1.88396 32.7224C1.30847 33.5499 1 34.5337 1 35.5416C1 36.5495 1.30847 37.5333 1.88396 38.3608C2.45945 39.1882 3.2744 39.8198 4.21932 40.1705L23.7965 47.2898L30.9127 66.8639C31.2634 67.8088 31.8949 68.6237 32.7224 69.1992C33.5499 69.7747 34.5337 70.0832 35.5416 70.0832C36.5495 70.0832 37.5333 69.7747 38.3608 69.1992C39.1882 68.6237 39.8198 67.8088 40.1705 66.8639L47.2898 47.2867L66.8639 40.1705C67.8088 39.8198 68.6237 39.1882 69.1992 38.3608C69.7747 37.5333 70.0832 36.5495 70.0832 35.5416C70.0832 34.5337 69.7747 33.5499 69.1992 32.7224C68.6237 31.8949 67.8088 31.2634 66.8639 30.9127ZM44.5155 43.0404C44.1769 43.1637 43.8693 43.3597 43.6145 43.6145C43.3597 43.8693 43.1637 44.1769 43.0404 44.5155L35.5416 65.1357L28.0428 44.5155C27.9195 44.1769 27.7235 43.8693 27.4687 43.6145C27.2138 43.3597 26.9063 43.1637 26.5677 43.0404L5.94745 35.5416L26.5677 28.0428C26.9063 27.9195 27.2138 27.7235 27.4687 27.4687C27.7235 27.2138 27.9195 26.9063 28.0428 26.5677L35.5416 5.94745L43.0404 26.5677C43.1637 26.9063 43.3597 27.2138 43.6145 27.4687C43.8693 27.7235 44.1769 27.9195 44.5155 28.0428L65.1357 35.5416L44.5155 43.0404Z" fill="#FAE62E" stroke="#FFC30D"/>
<path opacity="0.2" d="M45.1901 44.891L44.9708 44.9708L44.891 45.1901L37.381 65.8442C37.3808 65.8447 37.3806 65.8452 37.3804 65.8457C37.2405 66.2218 36.9889 66.5462 36.6594 66.7754C36.3294 67.0048 35.9372 67.1278 35.5353 67.1278C35.1334 67.1278 34.7411 67.0048 34.4112 66.7754C34.0817 66.5462 33.8302 66.2219 33.6902 65.8459C33.69 65.8453 33.6898 65.8448 33.6896 65.8442L26.192 45.1903L26.1123 44.9708L25.8929 44.891L5.23873 37.381C5.23818 37.3808 5.23762 37.3806 5.23706 37.3804C4.861 37.2404 4.53667 36.9888 4.30754 36.6594C4.07807 36.3294 3.95508 35.9372 3.95508 35.5353C3.95508 35.1334 4.07807 34.7411 4.30754 34.4112C4.53668 34.0817 4.86101 33.8302 5.23708 33.6902C5.23763 33.69 5.23818 33.6898 5.23873 33.6896L25.8926 26.192L26.1121 26.1123L26.1919 25.8929L33.7019 5.23873C33.7021 5.23828 33.7023 5.23782 33.7024 5.23736C33.8424 4.86117 34.094 4.53673 34.4235 4.30754L34.1392 3.89865L34.4235 4.30754C34.7535 4.07807 35.1457 3.95508 35.5476 3.95508C35.9495 3.95508 36.3418 4.07807 36.6717 4.30754C37.0012 4.53667 37.2527 4.861 37.3927 5.23706C37.3929 5.23762 37.3931 5.23818 37.3933 5.23873L44.9034 25.8929L44.9831 26.1122L45.2024 26.1919L65.8556 33.7016C66.2272 33.8445 66.5468 34.0968 66.7721 34.4251C66.9982 34.7545 67.1187 35.1449 67.1176 35.5444C67.1165 35.9439 66.9939 36.3336 66.7661 36.6618C66.5388 36.9893 66.2174 37.24 65.8445 37.3809C65.8437 37.3812 65.8429 37.3815 65.8421 37.3818L45.1901 44.891Z" fill="#FAE62E" stroke="#FAE62E"/>
</svg>
