<svg width="70" height="70" viewBox="0 0 70 70" fill="none" xmlns="http://www.w3.org/2000/svg">
<path d="M65.8639 29.9127L46.2867 22.7965L39.1705 3.21932C38.8198 2.2744 38.1882 1.45945 37.3608 0.883958C36.5333 0.308466 35.5495 0 34.5416 0C33.5337 0 32.5499 0.308466 31.7224 0.883958C30.8949 1.45945 30.2634 2.2744 29.9127 3.21932L22.7965 22.7965L3.21932 29.9127C2.2744 30.2634 1.45945 30.8949 0.883958 31.7224C0.308466 32.5499 0 33.5337 0 34.5416C0 35.5495 0.308466 36.5333 0.883958 37.3608C1.45945 38.1882 2.2744 38.8198 3.21932 39.1705L22.7965 46.2898L29.9127 65.8639C30.2634 66.8088 30.8949 67.6237 31.7224 68.1992C32.5499 68.7747 33.5337 69.0832 34.5416 69.0832C35.5495 69.0832 36.5333 68.7747 37.3608 68.1992C38.1882 67.6237 38.8198 66.8088 39.1705 65.8639L46.2898 46.2867L65.8639 39.1705C66.8088 38.8198 67.6237 38.1882 68.1992 37.3608C68.7747 36.5333 69.0832 35.5495 69.0832 34.5416C69.0832 33.5337 68.7747 32.5499 68.1992 31.7224C67.6237 30.8949 66.8088 30.2634 65.8639 29.9127ZM43.5155 42.0404C43.1769 42.1637 42.8693 42.3597 42.6145 42.6145C42.3597 42.8693 42.1637 43.1769 42.0404 43.5155L34.5416 64.1357L27.0428 43.5155C26.9195 43.1769 26.7235 42.8693 26.4687 42.6145C26.2138 42.3597 25.9063 42.1637 25.5677 42.0404L4.94745 34.5416L25.5677 27.0428C25.9063 26.9195 26.2138 26.7235 26.4687 26.4687C26.7235 26.2138 26.9195 25.9063 27.0428 25.5677L34.5416 4.94745L42.0404 25.5677C42.1637 25.9063 42.3597 26.2138 42.6145 26.4687C42.8693 26.7235 43.1769 26.9195 43.5155 27.0428L64.1357 34.5416L43.5155 42.0404Z" fill="black"/>
<path opacity="0.2" d="M65.0182 36.8497L44.3609 44.3609L36.8497 65.0182C36.6744 65.4906 36.3586 65.8981 35.9449 66.1859C35.5311 66.4736 35.0392 66.6278 34.5353 66.6278C34.0313 66.6278 33.5394 66.4736 33.1257 66.1859C32.712 65.8981 32.3962 65.4906 32.2208 65.0182L24.722 44.3609L4.06474 36.8497C3.59228 36.6744 3.1848 36.3586 2.89706 35.9449C2.60931 35.5311 2.45508 35.0392 2.45508 34.5353C2.45508 34.0313 2.60931 33.5394 2.89706 33.1257C3.1848 32.712 3.59228 32.3962 4.06474 32.2208L24.722 24.722L32.2332 4.06474C32.4086 3.59228 32.7243 3.1848 33.1381 2.89706C33.5518 2.60931 34.0437 2.45508 34.5476 2.45508C35.0516 2.45508 35.5435 2.60931 35.9572 2.89706C36.371 3.1848 36.6867 3.59228 36.8621 4.06474L44.3733 24.722L65.0305 32.2332C65.4985 32.4121 65.9009 32.7291 66.1844 33.1422C66.4678 33.5552 66.6189 34.0448 66.6176 34.5457C66.6162 35.0467 66.4625 35.5354 66.1769 35.9469C65.8912 36.3584 65.4871 36.6733 65.0182 36.8497Z" fill="black"/>
</svg>
