<svg width="52" height="52" viewBox="0 0 52 52" fill="none" xmlns="http://www.w3.org/2000/svg">
<path d="M13.0162 50.2408C12.7423 50.1032 12.5275 49.871 12.4117 49.5871C12.2959 49.3032 12.287 48.987 12.3865 48.6971L14.0197 43.9155L17.2169 46.0727L14.6331 49.8265C14.4587 50.0787 14.1991 50.2596 13.9021 50.3357C13.605 50.4118 13.2904 50.3781 13.0162 50.2408ZM38.74 50.2408C39.3047 49.9565 39.5769 49.2983 39.3697 48.6971L37.7162 43.8586L34.3484 45.7965L37.1231 49.8265C37.2975 50.0787 37.5571 50.2596 37.8541 50.3357C38.1512 50.4118 38.4658 50.3781 38.74 50.2408Z" fill="#82AEC0"/>
<path d="M14.0197 43.9157L13.1869 46.3532C13.7028 46.0566 14.3772 46.085 14.9135 46.3491C15.4497 46.6132 15.86 47.0763 16.1728 47.5882L17.1194 46.2151C17.1194 46.1582 14.0197 43.9157 14.0197 43.9157ZM37.7285 43.8547L38.6303 46.536C38.1144 46.2394 37.4969 46.2475 36.9566 46.5116C36.4203 46.7757 36.01 47.2388 35.6972 47.7507L34.4581 45.951L37.7285 43.8547Z" fill="#2F7889"/>
<path d="M25.8781 47.1007C35.3037 47.1007 42.9446 39.4597 42.9446 30.0341C42.9446 20.6085 35.3037 12.9675 25.8781 12.9675C16.4525 12.9675 8.81152 20.6085 8.81152 30.0341C8.81152 39.4597 16.4525 47.1007 25.8781 47.1007Z" fill="#FFEFA1"/>
<path d="M25.8782 48.5794C36.9529 48.5794 45.9307 39.6016 45.9307 28.5269C45.9307 17.4522 36.9529 8.47437 25.8782 8.47437C14.8035 8.47437 5.82568 17.4522 5.82568 28.5269C5.82568 39.6016 14.8035 48.5794 25.8782 48.5794Z" fill="#CC2929"/>
<path d="M25.8781 48.3843C36.2886 48.3843 44.7281 39.9449 44.7281 29.5343C44.7281 19.1238 36.2886 10.6843 25.8781 10.6843C15.4675 10.6843 7.02808 19.1238 7.02808 29.5343C7.02808 39.9449 15.4675 48.3843 25.8781 48.3843Z" fill="#FF4638"/>
<path d="M25.8782 45.7966C34.8595 45.7966 42.1403 38.5158 42.1403 29.5344C42.1403 20.553 34.8595 13.2722 25.8782 13.2722C16.8968 13.2722 9.61597 20.553 9.61597 29.5344C9.61597 38.5158 16.8968 45.7966 25.8782 45.7966Z" fill="#FAFAFA"/>
<path d="M26 31.3422C26.9984 31.3422 27.8078 30.5328 27.8078 29.5344C27.8078 28.5359 26.9984 27.7266 26 27.7266C25.0015 27.7266 24.1921 28.5359 24.1921 29.5344C24.1921 30.5328 25.0015 31.3422 26 31.3422Z" fill="#563428"/>
<path d="M25.8782 17.2941C25.5491 17.2941 25.281 17.026 25.281 16.6969V14.9094C25.281 14.5804 25.5491 14.3123 25.8782 14.3123C26.2072 14.3123 26.4753 14.5804 26.4753 14.9094V16.6969C26.4753 17.026 26.2072 17.2941 25.8782 17.2941ZM25.8782 44.7526C25.5491 44.7526 25.281 44.4844 25.281 44.1554V42.3679C25.281 42.0388 25.5491 41.7707 25.8782 41.7707C26.2072 41.7707 26.4753 42.0388 26.4753 42.3679V44.1554C26.4753 44.4844 26.2072 44.7526 25.8782 44.7526ZM40.4991 30.1276H38.7116C38.3825 30.1276 38.1144 29.8594 38.1144 29.5304C38.1144 29.2013 38.3825 28.9332 38.7116 28.9332H40.4991C40.8282 28.9332 41.0963 29.2013 41.0963 29.5304C41.0963 29.8635 40.8282 30.1276 40.4991 30.1276ZM13.0447 30.1276H11.2572C10.9282 30.1276 10.66 29.8594 10.66 29.5304C10.66 29.2013 10.9282 28.9332 11.2572 28.9332H13.0447C13.3738 28.9332 13.6419 29.2013 13.6419 29.5304C13.6419 29.8635 13.3738 30.1276 13.0447 30.1276Z" fill="#B2947C"/>
<path d="M25.8781 17.2941C25.549 17.2941 25.2809 17.026 25.2809 16.6969V14.9094C25.2809 14.5804 25.549 14.3123 25.8781 14.3123C26.2071 14.3123 26.4753 14.5804 26.4753 14.9094V16.6969C26.4753 17.026 26.2071 17.2941 25.8781 17.2941ZM25.8781 44.7526C25.549 44.7526 25.2809 44.4844 25.2809 44.1554V42.3679C25.2809 42.0388 25.549 41.7707 25.8781 41.7707C26.2071 41.7707 26.4753 42.0388 26.4753 42.3679V44.1554C26.4753 44.4844 26.2071 44.7526 25.8781 44.7526ZM18.9434 18.716L18.0496 17.1682C17.8831 16.8838 17.9806 16.5182 18.269 16.3516C18.5534 16.1851 18.919 16.2826 19.0856 16.571L19.9793 18.1188C20.1459 18.4032 20.0484 18.7688 19.76 18.9354C19.4756 19.0979 19.11 19.0004 18.9434 18.716ZM32.6746 42.4938L31.7809 40.946C31.6143 40.6616 31.7159 40.296 32.0003 40.1294C32.2846 39.9629 32.6503 40.0644 32.8168 40.3488L33.7106 41.8966C33.8771 42.181 33.7756 42.5466 33.4912 42.7132C33.2028 42.8757 32.8371 42.7782 32.6746 42.4938Z" fill="#B2947C"/>
<path d="M18.9435 18.7159L18.0497 17.1681C17.8831 16.8837 17.9806 16.5181 18.2691 16.3515C18.5535 16.185 18.9191 16.2825 19.0856 16.5709L19.9794 18.1187C20.146 18.4031 20.0484 18.7687 19.76 18.9353C19.4756 19.0978 19.11 19.0003 18.9435 18.7159ZM32.6747 42.4937L31.781 40.9459C31.6144 40.6615 31.7159 40.2959 32.0003 40.1293C32.2847 39.9628 32.6503 40.0643 32.8169 40.3487L33.7106 41.8965C33.8772 42.1809 33.7756 42.5465 33.4913 42.7131C33.2028 42.8756 32.8372 42.7781 32.6747 42.4937ZM14.4666 23.6315L12.9188 22.7378C12.6344 22.5712 12.5369 22.2096 12.6994 21.9212C12.866 21.6368 13.2275 21.5393 13.516 21.7018L15.0638 22.5956C15.3481 22.7621 15.4456 23.1237 15.2831 23.4121C15.1166 23.7006 14.751 23.7981 14.4666 23.6315ZM38.2444 37.3587L36.6966 36.465C36.4122 36.2984 36.3147 35.9368 36.4772 35.6484C36.6438 35.364 37.0053 35.2665 37.2938 35.429L38.8416 36.3228C39.1259 36.4893 39.2234 36.8509 39.061 37.1393C38.8944 37.4278 38.5288 37.5253 38.2444 37.3587ZM31.9963 18.9353C31.7119 18.7687 31.6144 18.4071 31.7769 18.1187L32.6706 16.5709C32.8372 16.2865 33.1988 16.189 33.4872 16.3515C33.7716 16.5181 33.8691 16.8796 33.7066 17.1681L32.8128 18.7159C32.6463 19.0003 32.2847 19.0978 31.9963 18.9353ZM18.2691 42.7131C17.9847 42.5465 17.8872 42.185 18.0497 41.8965L18.9435 40.3487C19.11 40.0643 19.4716 39.9668 19.76 40.1293C20.0444 40.2959 20.1419 40.6575 19.9794 40.9459L19.0856 42.4937C18.9191 42.7781 18.5535 42.8756 18.2691 42.7131ZM36.4772 23.4121C36.3106 23.1278 36.4081 22.7621 36.6966 22.5956L38.2444 21.7018C38.5288 21.5353 38.8944 21.6368 39.061 21.9212C39.2275 22.2056 39.1259 22.5712 38.8416 22.7378L37.2938 23.6315C37.0053 23.7981 36.6397 23.7006 36.4772 23.4121ZM12.6994 37.1434C12.5328 36.859 12.6344 36.4934 12.9188 36.3268L14.4666 35.4331C14.751 35.2665 15.1166 35.3681 15.2831 35.6525C15.4497 35.9368 15.3481 36.3025 15.0638 36.469L13.516 37.3628C13.2275 37.5253 12.8619 37.4278 12.6994 37.1434Z" fill="#B2947C"/>
<path d="M19.2928 25.7927L25.8782 29.5343" stroke="#563428" stroke-width="5" stroke-miterlimit="10" stroke-linecap="round"/>
<path d="M35.2909 24.1353L26.1787 29.5343" stroke="#563428" stroke-width="3.5" stroke-miterlimit="10" stroke-linecap="round"/>
<path d="M37.371 13.1989L35.6891 12.098L41.4132 1.95801L43.16 2.9452L37.371 13.1989Z" fill="#82AEC0"/>
<path d="M45.1628 14.3041C45.6625 14.4503 46.1988 14.1741 46.3532 13.6785C47.6694 9.47377 45.9632 4.8994 41.8357 2.77471C37.6797 0.633776 33.1663 2.0394 30.5378 5.62659C30.2413 6.02878 30.3103 6.59346 30.6841 6.92253C31.5332 7.67409 33.4182 9.08784 37.176 10.9891C41.145 12.996 43.8669 13.9222 45.1628 14.3041Z" fill="#CC2929"/>
<path d="M43.0016 4.18436C43.0016 4.18436 44.0619 2.83154 42.5222 1.97436C41.3237 1.30811 40.5641 2.76654 40.5641 2.76654C40.3 3.24998 42.8187 4.51748 43.0016 4.18436ZM14.4747 13.2112L8.67749 2.94529L10.4284 1.95811L16.0591 11.9356L14.4747 13.2112Z" fill="#82AEC0"/>
<path d="M6.83721 14.3041C6.33752 14.4503 5.80127 14.1741 5.64689 13.6785C4.33064 9.47377 6.03689 4.8994 10.1644 2.77471C14.3203 0.633776 18.8338 2.0394 21.4622 5.62659C21.7588 6.02878 21.6897 6.59346 21.316 6.92253C20.4669 7.67409 18.5819 9.08784 14.8241 10.9891C10.855 12.996 8.13314 13.9222 6.83721 14.3041Z" fill="#CC2929"/>
<path d="M8.99848 4.18436C8.99848 4.18436 7.93816 2.83154 9.47785 1.97436C10.6763 1.30811 11.436 2.76654 11.436 2.76654C11.7 3.24998 9.18129 4.51748 8.99848 4.18436Z" fill="#82AEC0"/>
<path d="M25.8782 9.43313V3.85938" stroke="#82AEC0" stroke-width="3.706" stroke-miterlimit="10"/>
<path d="M25.9024 5.84189C24.3099 5.84189 22.7134 5.23252 22.7134 5.23252V4.02596C22.7134 4.02596 24.1962 3.36377 25.9796 3.36377C27.7631 3.36377 29.0874 4.02596 29.0874 4.02596V5.23252C29.0915 5.23658 27.499 5.84189 25.9024 5.84189Z" fill="#82AEC0"/>
<path d="M23.1156 3.97725C22.9409 4.04225 22.9246 4.28193 23.0871 4.37537C23.3228 4.50943 23.6031 4.64756 23.7006 4.63131C25.0412 4.42412 26.9871 4.52568 28.3318 4.72881C28.4253 4.74506 28.6934 4.51756 28.8843 4.34693C28.99 4.24943 28.9656 4.08287 28.8356 4.02193C28.4131 3.831 27.4584 3.48975 25.9796 3.48975C24.6146 3.48975 23.6275 3.77818 23.1156 3.97725Z" fill="#94D1E0"/>
<path d="M38.6182 3.20938C38.7441 3.64 38.281 3.99344 37.9072 4.24125C36.965 4.87423 36.2079 5.7463 35.7135 6.76813C35.4779 7.25563 35.2138 7.85281 34.6735 7.93C34.4582 7.95844 34.2469 7.89344 34.0438 7.82031C33.731 7.70656 33.4263 7.57656 33.1297 7.42625C32.7763 7.2475 32.4147 7.02 32.2522 6.65844C32.041 6.18313 32.2401 5.6225 32.5244 5.18375C33.2029 4.14781 34.3079 3.50594 35.4454 3.08344C36.1319 2.8275 38.2769 2.04344 38.6182 3.20938ZM10.6154 6.63406C10.8794 7.1825 11.176 7.71469 11.5051 8.22656C11.9072 8.85219 12.3744 9.55094 12.2038 10.2741C12.0047 11.1028 11.0866 11.5009 10.2782 11.7772C9.86381 11.9194 9.4535 12.0616 9.03912 12.2038C8.81975 12.2809 8.58818 12.3581 8.35662 12.3459C7.991 12.3297 7.66193 12.0981 7.45475 11.8016C7.2435 11.505 7.13787 11.1475 7.05662 10.7941C6.75193 9.43313 6.81287 7.99094 7.23131 6.65844C7.47506 5.89469 7.85693 5.09031 8.72225 5.02938C9.77443 4.95625 10.2213 5.81344 10.6154 6.63406Z" fill="#FF4638"/>
</svg>
