<svg width="44" height="44" viewBox="0 0 44 44" fill="none" xmlns="http://www.w3.org/2000/svg">
<path d="M12.2237 14.0008C12.0278 16.0908 11.8903 19.7896 13.1243 21.364C13.1243 21.364 12.5434 17.3008 17.7512 12.203C19.8481 10.1508 20.3328 7.35959 19.6006 5.26615C19.1846 4.08022 18.4249 3.10053 17.7649 2.41647C17.3799 2.01428 17.6756 1.35084 18.2359 1.3749C21.6253 1.52615 27.1184 2.46803 29.4524 8.32553C30.4768 10.8968 30.5524 13.554 30.0643 16.2558C29.7549 17.9815 28.6549 21.8177 31.1643 22.2887C32.9553 22.6255 33.8215 21.2024 34.2099 20.178C34.3715 19.7518 34.9318 19.6452 35.2343 19.9855C38.2593 23.4265 38.5171 27.4793 37.8915 30.9683C36.6815 37.7127 29.8512 42.6215 23.0656 42.6215C14.5887 42.6215 7.84088 37.7712 6.09119 28.9918C5.38651 25.4477 5.74401 18.4352 11.2096 13.4852C11.6153 13.114 12.2787 13.444 12.2237 14.0008Z" fill="url(#paint0_radial_45_253)"/>
<path d="M26.1628 26.613C23.0381 22.5911 24.4372 18.0021 25.2037 16.1733C25.3069 15.9327 25.0319 15.7058 24.8153 15.8536C23.4712 16.768 20.7178 18.9199 19.4356 21.9483C17.6997 26.0424 17.8234 28.0464 18.8512 30.4939C19.47 31.9686 18.7516 32.2814 18.3906 32.3364C18.04 32.3914 17.7169 32.1577 17.4591 31.9136C16.7174 31.2016 16.1888 30.2969 15.9328 29.3011C15.8778 29.088 15.5994 29.0296 15.4722 29.2049C14.5097 30.5352 14.0112 32.6699 13.9872 34.1789C13.9116 38.8436 17.765 42.6249 22.4262 42.6249C28.3009 42.6249 32.5806 36.128 29.205 30.6968C28.2253 29.1155 27.3041 28.0808 26.1628 26.613Z" fill="url(#paint1_radial_45_253)"/>
<defs>
<radialGradient id="paint0_radial_45_253" cx="0" cy="0" r="1" gradientUnits="userSpaceOnUse" gradientTransform="translate(21.3866 42.7283) rotate(-179.751) scale(24.2645 39.8132)">
<stop offset="0.314" stop-color="#FF9800"/>
<stop offset="0.662" stop-color="#FF6D00"/>
<stop offset="0.972" stop-color="#F44336"/>
</radialGradient>
<radialGradient id="paint1_radial_45_253" cx="0" cy="0" r="1" gradientUnits="userSpaceOnUse" gradientTransform="translate(22.7493 18.5825) rotate(90.5787) scale(25.3881 19.1065)">
<stop offset="0.214" stop-color="#FFF176"/>
<stop offset="0.328" stop-color="#FFF27D"/>
<stop offset="0.487" stop-color="#FFF48F"/>
<stop offset="0.672" stop-color="#FFF7AD"/>
<stop offset="0.793" stop-color="#FFF9C4"/>
<stop offset="0.822" stop-color="#FFF8BD" stop-opacity="0.804"/>
<stop offset="0.863" stop-color="#FFF6AB" stop-opacity="0.529"/>
<stop offset="0.91" stop-color="#FFF38D" stop-opacity="0.209"/>
<stop offset="0.941" stop-color="#FFF176" stop-opacity="0"/>
</radialGradient>
</defs>
</svg>
